<?xml version="1.0" standalone="no"?><svg width="3389.80576171875" height="2193.595239257813" xmlns="http://www.w3.org/2000/svg" xmlns:xlink="http://www.w3.org/1999/xlink"><style>body { font-family: sans-serif; padding: 0px; margin: 0px; }line.bg { stroke: rgba(3, 148, 172, 0.7); stroke-width: 1px; }circle.bg { fill: rgba(100, 220, 240, 0.7); }line.bg-sub { stroke: rgba(140, 240, 240, 0.5); stroke-width: 1px; }rect, path, circle { fill: none; stroke-width: 2px; stroke-linejoin: round; }pattern line { vector-effect: non-scaling-stroke; }.zoomed-out pattern line { vector-effect: none; }text { stroke-width: 0px; font-family: sans-serif; }text tspan { vector-effect: non-scaling-stroke; }.ui-dark { background: rgb(51, 51, 51) none repeat scroll 0% 0%; }.ui-dark line.bg { stroke: rgba(172, 232, 242, 0.57); stroke-width: 1px; }.ui-dark circle.bg { fill: rgba(100, 220, 240, 0.3); }.ui-dark line.bg-sub { stroke: rgba(140, 240, 240, 0.1); stroke-width: 1px; }rect.marquee { fill: rgba(234, 255, 231, 0.3); stroke: rgb(98, 137, 95); stroke-width: 1px; stroke-dasharray: 4px; vector-effect: non-scaling-stroke; }rect.highlight { fill: blue; opacity: 0.5; }</style><g transform="translate(1174.9027587890625, 760.2976196289062)"><defs><pattern id="pattern_bg" viewBox="0 0 60 60" width="0.057692307692307696" height="0.08915304606240713" patternTransform="scale(0.337482492337222 0.337482492337222) translate(1020.8206701294637 660.5887605741626)"><line class="bg" x1="0" y1="0" x2="60" y2="0"></line><line class="bg" x1="0" y1="0" y2="60" x2="0"></line><line class="bg-sub" x1="0" y1="15" x2="60" y2="15"></line><line class="bg-sub" y1="0" x1="15" y2="60" x2="15"></line><line class="bg-sub" x1="0" y1="30" x2="60" y2="30"></line><line class="bg-sub" y1="0" x1="30" y2="60" x2="30"></line><line class="bg-sub" x1="0" y1="45" x2="60" y2="45"></line><line class="bg-sub" y1="0" x1="45" y2="60" x2="45"></line></pattern></defs><g class="bg"><rect x="-1020.8206701294637" y="-660.5887605741626" width="3081.6413402589274" height="1994.1775211483252" style="fill: url(&quot;#pattern_bg&quot;);"></rect></g>null<path d="M 120 120" class="u" stroke="rgb(41, 173, 255)" style="fill: rgba(0, 0, 0, 0); stroke-width: 2px;" transform="translate(120, 2.80329)"></path><path d="M 60 120 L 120 150 L 180 120 L 120 90 Z" class="u" stroke="rgb(41, 173, 255)" style="fill: rgba(0, 0, 0, 0); stroke-width: 2px;" transform="translate(120, 2.80329)"></path><path d="M 120 120 L 180 90 l -9.486832980505138 -3.1622776601683777 m 9.486832980505138 3.1622776601683777 l -3.162277660168378 9.486832980505138" class="u" stroke="rgb(255, 0, 77)" style="fill: rgba(0, 0, 0, 0); stroke-width: 2px;" transform="translate(120, 2.80329)"></path><path d="M 120 120 L 60 90 l 3.1622776601683795 9.486832980505138 m -3.1622776601683795 -9.486832980505138 l 9.486832980505138 -3.162277660168379" class="u" stroke="rgb(255, 0, 77)" style="fill: rgba(0, 0, 0, 0); stroke-width: 2px;" transform="translate(120, 2.80329)"></path><path d="M 120 120 L 180 150 l -3.1622776601683804 -9.486832980505138 m 3.1622776601683804 9.486832980505138 l -9.486832980505138 3.16227766016838" class="u" stroke="rgb(255, 0, 77)" style="fill: rgba(0, 0, 0, 0); stroke-width: 2px;" transform="translate(120, 2.80329)"></path><path d="M 120 120 L 60 150 l 9.486832980505138 3.1622776601683764 m -9.486832980505138 -3.1622776601683764 l 3.1622776601683773 -9.486832980505138" class="u" stroke="rgb(255, 0, 77)" style="fill: rgba(0, 0, 0, 0); stroke-width: 2px;" transform="translate(120, 2.80329)"></path><text x="195" y="88" class="u" fill="rgb(255, 0, 77)" stroke="rgba(0, 0, 0, 0)" style="font-family: sans-serif; font-size: 18px;" transform="translate(120, 2.80329)"><tspan class="u" x="195" dy="0em">E</tspan></text><text x="195" y="163" class="u" fill="rgb(255, 0, 77)" stroke="rgba(0, 0, 0, 0)" style="font-family: sans-serif; font-size: 18px;" transform="translate(120, 2.80329)"><tspan class="u" x="195" dy="0em">S</tspan></text><text x="30" y="163" class="u" fill="rgb(255, 0, 77)" stroke="rgba(0, 0, 0, 0)" style="font-family: sans-serif; font-size: 18px;" transform="translate(120, 2.80329)"><tspan class="u" x="30" dy="0em">W</tspan></text><text x="30" y="88" class="u" fill="rgb(255, 0, 77)" stroke="rgba(0, 0, 0, 0)" style="font-family: sans-serif; font-size: 18px;" transform="translate(120, 2.80329)"><tspan class="u" x="30" dy="0em">N</tspan></text><path d="M 300 120" class="u" stroke="rgb(255, 0, 77)" style="fill: rgba(0, 0, 0, 0); stroke-width: 2px;" transform="translate(120, 2.80329)"></path><path d="M 300 120 L 360 150 L 420 120 L 360 90 Z" class="u" stroke="rgb(41, 173, 255)" style="fill: rgba(0, 0, 0, 0); stroke-width: 2px;" transform="translate(120, 2.80329)"></path><path d="M 540 120 L 600 90 L 660 120 L 600 150 Z" class="u" stroke="rgb(41, 173, 255)" style="fill: rgba(0, 0, 0, 0); stroke-width: 2px;" transform="translate(120, 2.80329)"></path><path d="M 780 120 L 840 90 L 900 120 L 840 150 Z" class="u" stroke="rgb(41, 173, 255)" style="fill: rgba(0, 0, 0, 0); stroke-width: 2px;" transform="translate(120, 2.80329)"></path><path d="M 360 120 L 420 90 l -9.486832980505138 -3.1622776601683777 m 9.486832980505138 3.1622776601683777 l -3.162277660168378 9.486832980505138" class="u" stroke="rgb(255, 0, 77)" style="fill: rgba(0, 0, 0, 0); stroke-width: 2px;" transform="translate(120, 2.80329)"></path><path d="M 360 120 L 300 90 l 3.1622776601683795 9.486832980505138 m -3.1622776601683795 -9.486832980505138 l 9.486832980505138 -3.162277660168379" class="u" stroke="rgb(255, 0, 77)" style="fill: rgba(0, 0, 0, 0); stroke-width: 2px;" transform="translate(120, 2.80329)"></path><path d="M 360 120 L 300 150 l 9.486832980505138 3.1622776601683764 m -9.486832980505138 -3.1622776601683764 l 3.1622776601683773 -9.486832980505138" class="u" stroke="rgb(255, 0, 77)" style="fill: rgba(0, 0, 0, 0); stroke-width: 2px;" transform="translate(120, 2.80329)"></path><path d="M 360 120 L 420 150 l -3.1622776601683804 -9.486832980505138 m 3.1622776601683804 9.486832980505138 l -9.486832980505138 3.16227766016838" class="u" stroke="rgb(255, 0, 77)" style="fill: rgba(0, 0, 0, 0); stroke-width: 2px;" transform="translate(120, 2.80329)"></path><path d="M 600 120 L 540 150 l 9.486832980505138 3.1622776601683764 m -9.486832980505138 -3.1622776601683764 l 3.1622776601683773 -9.486832980505138" class="u" stroke="rgb(255, 0, 77)" style="fill: rgba(0, 0, 0, 0); stroke-width: 2px;" transform="translate(120, 2.80329)"></path><path d="M 600 120 L 660 90 l -9.486832980505138 -3.1622776601683777 m 9.486832980505138 3.1622776601683777 l -3.162277660168378 9.486832980505138" class="u" stroke="rgb(255, 0, 77)" style="fill: rgba(0, 0, 0, 0); stroke-width: 2px;" transform="translate(120, 2.80329)"></path><path d="M 600 120 L 540 90 l 3.1622776601683795 9.486832980505138 m -3.1622776601683795 -9.486832980505138 l 9.486832980505138 -3.162277660168379" class="u" stroke="rgb(255, 0, 77)" style="fill: rgba(0, 0, 0, 0); stroke-width: 2px;" transform="translate(120, 2.80329)"></path><path d="M 600 120 L 660 150 l -3.1622776601683804 -9.486832980505138 m 3.1622776601683804 9.486832980505138 l -9.486832980505138 3.16227766016838" class="u" stroke="rgb(255, 0, 77)" style="fill: rgba(0, 0, 0, 0); stroke-width: 2px;" transform="translate(120, 2.80329)"></path><path d="M 840 120 L 900 90 l -9.486832980505138 -3.1622776601683777 m 9.486832980505138 3.1622776601683777 l -3.162277660168378 9.486832980505138" class="u" stroke="rgb(255, 0, 77)" style="fill: rgba(0, 0, 0, 0); stroke-width: 2px;" transform="translate(120, 2.80329)"></path><path d="M 840 120 L 780 90 l 3.1622776601683795 9.486832980505138 m -3.1622776601683795 -9.486832980505138 l 9.486832980505138 -3.162277660168379" class="u" stroke="rgb(255, 0, 77)" style="fill: rgba(0, 0, 0, 0); stroke-width: 2px;" transform="translate(120, 2.80329)"></path><path d="M 840 120 L 780 150 l 9.486832980505138 3.1622776601683764 m -9.486832980505138 -3.1622776601683764 l 3.1622776601683773 -9.486832980505138" class="u" stroke="rgb(255, 0, 77)" style="fill: rgba(0, 0, 0, 0); stroke-width: 2px;" transform="translate(120, 2.80329)"></path><path d="M 840 120 L 900 150 l -3.1622776601683804 -9.486832980505138 m 3.1622776601683804 9.486832980505138 l -9.486832980505138 3.16227766016838" class="u" stroke="rgb(255, 0, 77)" style="fill: rgba(0, 0, 0, 0); stroke-width: 2px;" transform="translate(120, 2.80329)"></path><text x="270" y="163" class="u" fill="rgb(255, 0, 77)" stroke="rgba(0, 0, 0, 0)" style="font-family: sans-serif; font-size: 18px;" transform="translate(120, 2.80329)"><tspan class="u" x="270" dy="0em">N</tspan></text><text x="435" y="163" class="u" fill="rgb(255, 0, 77)" stroke="rgba(0, 0, 0, 0)" style="font-family: sans-serif; font-size: 18px;" transform="translate(120, 2.80329)"><tspan class="u" x="435" dy="0em">W</tspan></text><text x="435" y="88" class="u" fill="rgb(255, 0, 77)" stroke="rgba(0, 0, 0, 0)" style="font-family: sans-serif; font-size: 18px;" transform="translate(120, 2.80329)"><tspan class="u" x="435" dy="0em">S</tspan></text><text x="270" y="88" class="u" fill="rgb(255, 0, 77)" stroke="rgba(0, 0, 0, 0)" style="font-family: sans-serif; font-size: 18px;" transform="translate(120, 2.80329)"><tspan class="u" x="270" dy="0em">E</tspan></text><text x="510" y="163" class="u" fill="rgb(255, 0, 77)" stroke="rgba(0, 0, 0, 0)" style="font-family: sans-serif; font-size: 18px;" transform="translate(120, 2.80329)"><tspan class="u" x="510" dy="0em">E</tspan></text><text x="675" y="163" class="u" fill="rgb(255, 0, 77)" stroke="rgba(0, 0, 0, 0)" style="font-family: sans-serif; font-size: 18px;" transform="translate(120, 2.80329)"><tspan class="u" x="675" dy="0em">N</tspan></text><text x="675" y="88" class="u" fill="rgb(255, 0, 77)" stroke="rgba(0, 0, 0, 0)" style="font-family: sans-serif; font-size: 18px;" transform="translate(120, 2.80329)"><tspan class="u" x="675" dy="0em">W</tspan></text><text x="510" y="88" class="u" fill="rgb(255, 0, 77)" stroke="rgba(0, 0, 0, 0)" style="font-family: sans-serif; font-size: 18px;" transform="translate(120, 2.80329)"><tspan class="u" x="510" dy="0em">S</tspan></text><text x="750" y="163" class="u" fill="rgb(255, 0, 77)" stroke="rgba(0, 0, 0, 0)" style="font-family: sans-serif; font-size: 18px;" transform="translate(120, 2.80329)"><tspan class="u" x="750" dy="0em">S</tspan></text><text x="915" y="163" class="u" fill="rgb(255, 0, 77)" stroke="rgba(0, 0, 0, 0)" style="font-family: sans-serif; font-size: 18px;" transform="translate(120, 2.80329)"><tspan class="u" x="915" dy="0em">E</tspan></text><text x="915" y="88" class="u" fill="rgb(255, 0, 77)" stroke="rgba(0, 0, 0, 0)" style="font-family: sans-serif; font-size: 18px;" transform="translate(120, 2.80329)"><tspan class="u" x="915" dy="0em">N</tspan></text><text x="750" y="88" class="u" fill="rgb(255, 0, 77)" stroke="rgba(0, 0, 0, 0)" style="font-family: sans-serif; font-size: 18px;" transform="translate(120, 2.80329)"><tspan class="u" x="750" dy="0em">W</tspan></text><text x="75" y="58" class="u" fill="rgb(0, 0, 0)" stroke="rgba(0, 0, 0, 0)" style="font-family: sans-serif; font-size: 18px;" transform="translate(120, 2.80329)"><tspan class="u" x="75" dy="0em">View_SW</tspan></text><text x="315" y="58" class="u" fill="rgb(0, 0, 0)" stroke="rgba(0, 0, 0, 0)" style="font-family: sans-serif; font-size: 18px;" transform="translate(120, 2.80329)"><tspan class="u" x="315" dy="0em">View_NW</tspan></text><text x="555" y="58" class="u" fill="rgb(0, 0, 0)" stroke="rgba(0, 0, 0, 0)" style="font-family: sans-serif; font-size: 18px;" transform="translate(120, 2.80329)"><tspan class="u" x="555" dy="0em">View_NE</tspan></text><text x="795" y="58" class="u" fill="rgb(0, 0, 0)" stroke="rgba(0, 0, 0, 0)" style="font-family: sans-serif; font-size: 18px;" transform="translate(120, 2.80329)"><tspan class="u" x="795" dy="0em">View_SE</tspan></text><path d="M 120 240 L 150 210 L 120 195 L 90 225 Z" class="u" stroke="rgb(41, 173, 255)" style="fill: rgb(0, 228, 54); stroke-width: 2px;" transform="translate(120, 2.80329)"></path><path d="M 360 240 L 390 225 L 360 195 L 330 210 Z" class="u" stroke="rgb(41, 173, 255)" style="fill: rgb(0, 228, 54); stroke-width: 2px;" transform="translate(120, 2.80329)"></path><path d="M 600 225 L 630 225 L 600 210 L 570 210 Z" class="u" stroke="rgb(41, 173, 255)" style="fill: rgb(0, 228, 54); stroke-width: 2px;" transform="translate(120, 2.80329)"></path><path d="M 840 225 L 870 210 L 840 210 L 810 225 Z" class="u" stroke="rgb(41, 173, 255)" style="fill: rgb(0, 228, 54); stroke-width: 2px;" transform="translate(120, 2.80329)"></path><path d="M 600 345 L 630 330 L 600 330 L 570 345 Z" class="u" stroke="rgb(41, 173, 255)" style="fill: rgb(0, 228, 54); stroke-width: 2px;" transform="translate(120, 2.80329)"></path><path d="M 360 345 L 390 345 L 360 330 L 330 330 Z" class="u" stroke="rgb(41, 173, 255)" style="fill: rgb(0, 228, 54); stroke-width: 2px;" transform="translate(120, 2.80329)"></path><path d="M 120 360 L 150 345 L 120 315 L 90 330 Z" class="u" stroke="rgb(41, 173, 255)" style="fill: rgb(0, 228, 54); stroke-width: 2px;" transform="translate(120, 2.80329)"></path><path d="M 120 465 L 150 465 L 120 450 L 90 450 Z" class="u" stroke="rgb(41, 173, 255)" style="fill: rgb(0, 228, 54); stroke-width: 2px;" transform="translate(120, 2.80329)"></path><path d="M 390 450 L 360 450 L 330 465 L 360 465 Z" class="u" stroke="rgb(41, 173, 255)" style="fill: rgb(0, 228, 54); stroke-width: 2px;" transform="translate(120, 2.80329)"></path><path d="M 120 585 L 150 570 L 120 570 L 90 585 Z" class="u" stroke="rgb(41, 173, 255)" style="fill: rgb(0, 228, 54); stroke-width: 2px;" transform="translate(120, 2.80329)"></path><path d="M 360 600 L 390 570 L 360 555 L 330 585 Z" class="u" stroke="rgb(41, 173, 255)" style="fill: rgb(0, 228, 54); stroke-width: 2px;" transform="translate(120, 2.80329)"></path><path d="M 600 480 L 630 450 L 600 435 L 570 465 Z" class="u" stroke="rgb(41, 173, 255)" style="fill: rgb(0, 228, 54); stroke-width: 2px;" transform="translate(120, 2.80329)"></path><path d="M 600 600 L 630 585 L 600 555 L 570 570 Z" class="u" stroke="rgb(41, 173, 255)" style="fill: rgb(0, 228, 54); stroke-width: 2px;" transform="translate(120, 2.80329)"></path><path d="M 840 360 L 870 330 L 840 315 L 810 345 Z" class="u" stroke="rgb(41, 173, 255)" style="fill: rgb(0, 228, 54); stroke-width: 2px;" transform="translate(120, 2.80329)"></path><path d="M 840 480 L 870 465 L 840 435 L 810 450 Z" class="u" stroke="rgb(41, 173, 255)" style="fill: rgb(0, 228, 54); stroke-width: 2px;" transform="translate(120, 2.80329)"></path><path d="M 840 585 L 870 585 L 840 570 L 810 570 Z" class="u" stroke="rgb(41, 173, 255)" style="fill: rgb(0, 228, 54); stroke-width: 2px;" transform="translate(120, 2.80329)"></path><path d="M 120 240 L 150 225 L 150 210 Z" class="u" stroke="rgb(41, 173, 255)" style="fill: rgb(255, 204, 170); stroke-width: 2px;" transform="translate(120, 2.80329)"></path><path d="M 330 210 L 330 225 L 360 240 Z" class="u" stroke="rgb(41, 173, 255)" style="fill: rgb(255, 204, 170); stroke-width: 2px;" transform="translate(120, 2.80329)"></path><path d="M 570 210 L 570 225 L 600 240 L 600 225 Z" class="u" stroke="rgb(41, 173, 255)" style="fill: rgb(255, 204, 170); stroke-width: 2px;" transform="translate(120, 2.80329)"></path><path d="M 600 240 L 630 225 L 600 225 Z" class="u" stroke="rgb(41, 173, 255)" style="fill: rgb(255, 204, 170); stroke-width: 2px;" transform="translate(120, 2.80329)"></path><path d="M 810 225 L 840 240 L 840 225 Z" class="u" stroke="rgb(41, 173, 255)" style="fill: rgb(255, 204, 170); stroke-width: 2px;" transform="translate(120, 2.80329)"></path><path d="M 870 225 L 840 240 L 840 225 L 870 210 Z" class="u" stroke="rgb(41, 173, 255)" style="fill: rgb(255, 204, 170); stroke-width: 2px;" transform="translate(120, 2.80329)"></path><path d="M 840 360 L 870 345 L 870 330 Z" class="u" stroke="rgb(41, 173, 255)" style="fill: rgb(255, 204, 170); stroke-width: 2px;" transform="translate(120, 2.80329)"></path><path d="M 810 450 L 810 465 L 840 480 Z" class="u" stroke="rgb(41, 173, 255)" style="fill: rgb(255, 204, 170); stroke-width: 2px;" transform="translate(120, 2.80329)"></path><path d="M 810 570 L 810 585 L 840 600 L 840 585 Z" class="u" stroke="rgb(41, 173, 255)" style="fill: rgb(255, 204, 170); stroke-width: 2px;" transform="translate(120, 2.80329)"></path><path d="M 840 600 L 870 585 L 840 585 Z" class="u" stroke="rgb(41, 173, 255)" style="fill: rgb(255, 204, 170); stroke-width: 2px;" transform="translate(120, 2.80329)"></path><path d="M 570 345 L 600 360 L 600 345 Z" class="u" stroke="rgb(41, 173, 255)" style="fill: rgb(255, 204, 170); stroke-width: 2px;" transform="translate(120, 2.80329)"></path><path d="M 600 360 L 630 345 L 630 330 L 600 345 Z" class="u" stroke="rgb(41, 173, 255)" style="fill: rgb(255, 204, 170); stroke-width: 2px;" transform="translate(120, 2.80329)"></path><path d="M 600 480 L 630 465 L 630 450 Z" class="u" stroke="rgb(41, 173, 255)" style="fill: rgb(255, 204, 170); stroke-width: 2px;" transform="translate(120, 2.80329)"></path><path d="M 570 570 L 570 585 L 600 600 Z" class="u" stroke="rgb(41, 173, 255)" style="fill: rgb(255, 204, 170); stroke-width: 2px;" transform="translate(120, 2.80329)"></path><path d="M 360 600 L 390 585 L 390 570 Z" class="u" stroke="rgb(41, 173, 255)" style="fill: rgb(255, 204, 170); stroke-width: 2px;" transform="translate(120, 2.80329)"></path><path d="M 330 465 L 360 480 L 360 465 Z" class="u" stroke="rgb(41, 173, 255)" style="fill: rgb(255, 204, 170); stroke-width: 2px;" transform="translate(120, 2.80329)"></path><path d="M 360 480 L 390 465 L 390 450 L 360 465 Z" class="u" stroke="rgb(41, 173, 255)" style="fill: rgb(255, 204, 170); stroke-width: 2px;" transform="translate(120, 2.80329)"></path><path d="M 330 330 L 330 345 L 360 360 L 360 345 Z" class="u" stroke="rgb(41, 173, 255)" style="fill: rgb(255, 204, 170); stroke-width: 2px;" transform="translate(120, 2.80329)"></path><path d="M 360 360 L 390 345 L 360 345 Z" class="u" stroke="rgb(41, 173, 255)" style="fill: rgb(255, 204, 170); stroke-width: 2px;" transform="translate(120, 2.80329)"></path><path d="M 90 330 L 90 345 L 120 360 Z" class="u" stroke="rgb(41, 173, 255)" style="fill: rgb(255, 204, 170); stroke-width: 2px;" transform="translate(120, 2.80329)"></path><path d="M 90 450 L 90 465 L 120 480 L 120 465 Z" class="u" stroke="rgb(41, 173, 255)" style="fill: rgb(255, 204, 170); stroke-width: 2px;" transform="translate(120, 2.80329)"></path><path d="M 120 480 L 150 465 L 120 465 Z" class="u" stroke="rgb(41, 173, 255)" style="fill: rgb(255, 204, 170); stroke-width: 2px;" transform="translate(120, 2.80329)"></path><path d="M 90 585 L 120 600 L 120 585 Z" class="u" stroke="rgb(41, 173, 255)" style="fill: rgb(255, 204, 170); stroke-width: 2px;" transform="translate(120, 2.80329)"></path><path d="M 120 600 L 150 585 L 150 570 L 120 585 Z" class="u" stroke="rgb(41, 173, 255)" style="fill: rgb(255, 204, 170); stroke-width: 2px;" transform="translate(120, 2.80329)"></path><text x="90" y="268" class="u" fill="rgb(41, 173, 255)" stroke="rgb(255, 204, 170)" style="font-family: sans-serif; font-size: 18px;" transform="translate(120, 2.80329)"><tspan class="u" x="90" dy="0em">asset_W</tspan></text><text x="330" y="268" class="u" fill="rgb(41, 173, 255)" stroke="rgb(255, 204, 170)" style="font-family: sans-serif; font-size: 18px;" transform="translate(120, 2.80329)"><tspan class="u" x="330" dy="0em">asset_S</tspan></text><text x="570" y="268" class="u" fill="rgb(41, 173, 255)" stroke="rgb(255, 204, 170)" style="font-family: sans-serif; font-size: 18px;" transform="translate(120, 2.80329)"><tspan class="u" x="570" dy="0em">asset_E</tspan></text><text x="810" y="268" class="u" fill="rgb(41, 173, 255)" stroke="rgb(255, 204, 170)" style="font-family: sans-serif; font-size: 18px;" transform="translate(120, 2.80329)"><tspan class="u" x="810" dy="0em">asset_N</tspan></text><text x="90" y="388" class="u" fill="rgb(41, 173, 255)" stroke="rgb(255, 204, 170)" style="font-family: sans-serif; font-size: 18px;" transform="translate(120, 2.80329)"><tspan class="u" x="90" dy="0em">asset_S</tspan></text><text x="330" y="388" class="u" fill="rgb(41, 173, 255)" stroke="rgb(255, 204, 170)" style="font-family: sans-serif; font-size: 18px;" transform="translate(120, 2.80329)"><tspan class="u" x="330" dy="0em">asset_E</tspan></text><text x="570" y="388" class="u" fill="rgb(41, 173, 255)" stroke="rgb(255, 204, 170)" style="font-family: sans-serif; font-size: 18px;" transform="translate(120, 2.80329)"><tspan class="u" x="570" dy="0em">asset_N</tspan></text><text x="810" y="388" class="u" fill="rgb(41, 173, 255)" stroke="rgb(255, 204, 170)" style="font-family: sans-serif; font-size: 18px;" transform="translate(120, 2.80329)"><tspan class="u" x="810" dy="0em">asset_W</tspan></text><text x="330" y="508" class="u" fill="rgb(41, 173, 255)" stroke="rgb(255, 204, 170)" style="font-family: sans-serif; font-size: 18px;" transform="translate(120, 2.80329)"><tspan class="u" x="330" dy="0em">asset_N</tspan></text><text x="-60" y="238" class="u" fill="rgb(0, 0, 0)" stroke="rgba(0, 0, 0, 0)" style="font-family: sans-serif; font-size: 18px;" transform="translate(120, 2.80329)"><tspan class="u" x="-60" dy="0em">Slope_W</tspan></text><text x="-60" y="358" class="u" fill="rgb(0, 0, 0)" stroke="rgba(0, 0, 0, 0)" style="font-family: sans-serif; font-size: 18px;" transform="translate(120, 2.80329)"><tspan class="u" x="-60" dy="0em">Slope_S</tspan></text><text x="-60" y="478" class="u" fill="rgb(0, 0, 0)" stroke="rgba(0, 0, 0, 0)" style="font-family: sans-serif; font-size: 18px;" transform="translate(120, 2.80329)"><tspan class="u" x="-60" dy="0em">Slope_E</tspan></text><path d="M -60 600" class="u" stroke="rgb(41, 173, 255)" style="fill: rgba(0, 0, 0, 0); stroke-width: 2px;" transform="translate(120, 2.80329)"></path><text x="-60" y="598" class="u" fill="rgb(0, 0, 0)" stroke="rgba(0, 0, 0, 0)" style="font-family: sans-serif; font-size: 18px;" transform="translate(120, 2.80329)"><tspan class="u" x="-60" dy="0em">Slope_N</tspan></text><text x="570" y="508" class="u" fill="rgb(41, 173, 255)" stroke="rgba(0, 0, 0, 0)" style="font-family: sans-serif; font-size: 18px;" transform="translate(120, 2.80329)"><tspan class="u" x="570" dy="0em">asset_W</tspan></text><text x="810" y="508" class="u" fill="rgb(41, 173, 255)" stroke="rgba(0, 0, 0, 0)" style="font-family: sans-serif; font-size: 18px;" transform="translate(120, 2.80329)"><tspan class="u" x="810" dy="0em">asset_S</tspan></text><text x="810" y="628" class="u" fill="rgb(41, 173, 255)" stroke="rgba(0, 0, 0, 0)" style="font-family: sans-serif; font-size: 18px;" transform="translate(120, 2.80329)"><tspan class="u" x="810" dy="0em">asset_E</tspan></text><text x="570" y="628" class="u" fill="rgb(41, 173, 255)" stroke="rgba(0, 0, 0, 0)" style="font-family: sans-serif; font-size: 18px;" transform="translate(120, 2.80329)"><tspan class="u" x="570" dy="0em">asset_S</tspan></text><text x="330" y="628" class="u" fill="rgb(41, 173, 255)" stroke="rgba(0, 0, 0, 0)" style="font-family: sans-serif; font-size: 18px;" transform="translate(120, 2.80329)"><tspan class="u" x="330" dy="0em">asset_W</tspan></text><text x="90" y="628" class="u" fill="rgb(41, 173, 255)" stroke="rgba(0, 0, 0, 0)" style="font-family: sans-serif; font-size: 18px;" transform="translate(120, 2.80329)"><tspan class="u" x="90" dy="0em">asset_N</tspan></text><text x="90" y="508" class="u" fill="rgb(41, 173, 255)" stroke="rgba(0, 0, 0, 0)" style="font-family: sans-serif; font-size: 18px;" transform="translate(120, 2.80329)"><tspan class="u" x="90" dy="0em">asset_E</tspan></text></g></svg>